<svg xmlns="http://www.w3.org/2000/svg" xmlns:xlink="http://www.w3.org/1999/xlink" width="1190px" height="800px" viewBox="0 0  1190 800" preserveAspectRatio="xMidYMid meet" ><rect id="svgEditorBackground" x="0" y="0" width="1190" height="800" style="fill: none; stroke: none;"/><defs id="svgEditorDefs"><polygon id="svgEditorShapeDefs" style="fill:none;stroke:black;vector-effect:non-scaling-stroke;stroke-width:1px;"/><linearGradient gradientUnits="objectBoundingBox" id="lgrd2-peachpuff-sienna-v" spreadMethod="pad" x1="0%" x2="100%" y1="0%" y2="0.6%"><stop offset="0" style="stop-color: rgb(78, 0, 255); stop-opacity: 1;"/><stop offset="0.987273" style="stop-color: rgb(221, 58, 224); stop-opacity: 0.84;"/></linearGradient></defs><path d="M0.2711959702050341,-3.7723721161464328l-4.0000000000000115,6.928000000000001h8.000000000000004Z" style="fill:black; stroke:url(#lgrd2-peachpuff-sienna-v); vector-effect:non-scaling-stroke;stroke-width:5px;stroke-linecap:round;stroke-linejoin:round;fill-opacity:0.12;" id="e1_shape" transform="matrix(-91.4034 -0.686761 0.686761 -91.4034 628.603 407.708)"/><path d="M0.9302509485209435,-3.2523213464800635l-4.000000000000009,6.928000000000006h8Z" style="fill:none; stroke:url(#lgrd2-peachpuff-sienna-v); vector-effect:non-scaling-stroke;stroke-width:6.15px;stroke-linecap:round;stroke-linejoin:round;stroke-opacity:0.24;" id="e3_shape" transform="matrix(-91.0402 8.16895 -8.16895 -91.0402 645.346 441.706)"/><path d="M0.36272673518125786,-3.4438284426967862l-4.000000000000018,6.928000000000022h8.000000000000004Z" style="fill:none; stroke:url(#lgrd2-peachpuff-sienna-v); vector-effect:non-scaling-stroke;stroke-width:1.9px;stroke-linecap:round;stroke-linejoin:round;stroke-opacity:0.7;" id="e14_shape" transform="matrix(-82.6914 -12.2337 12.2337 -82.6914 656.931 421.122)"/><path d="M1.200836056208885,-3.1748729577126547l-4.000000000000021,6.928000000000017h8.00000000000001Z" style="fill:none; stroke:url(#lgrd2-peachpuff-sienna-v); vector-effect:non-scaling-stroke;stroke-width:2.87px;stroke-linecap:round;stroke-linejoin:round;stroke-opacity:0.37;" id="e2_shape" transform="matrix(-80.9898 7.26714 -7.26714 -80.9898 581.192 393.813)"/><path d="M0.4821158879112511,-2.676827066756715l-4.000000000000016,6.928000000000019h8.000000000000004Z" style="fill:none; stroke:url(#lgrd2-peachpuff-sienna-v); vector-effect:non-scaling-stroke;stroke-width:1.83px;stroke-linecap:round;stroke-linejoin:round;stroke-opacity:0.23;" id="e4_shape" transform="matrix(-91.4043 -0.549819 0.549819 -91.4043 642.565 439.95)"/></svg>